/* XPM */
static char * 1_xpm[] = {
"24 24 9 1",
" 	c None",
".	c #000000",
"+	c #F6CE13",
"@	c #CFAD10",
"#	c #826D0A",
"$	c #352C04",
"%	c #282103",
"&	c #7A6609",
"*	c #CCAB0F",
"                        ",
"        .........       ",
"      ....+++++....     ",
"     ..+++++++++++..    ",
"    ..+++++++++++++..   ",
"   ..+++++++++++++++..  ",
"  ..+++++@#$..+++++++.. ",
"  .++++++%&*..++++++++. ",
" ..+++++++++..++++++++..",
" ..+++++++++..++++++++..",
" .++++++++++..+++++++++.",
" .++++++++++..+++++++++.",
" .++++++++++..+++++++++.",
" .++++++++++..+++++++++.",
" .++++++++++..+++++++++.",
" ..+++++++++..++++++++..",
" ..+++++++++..++++++++..",
"  .++++++........+++++. ",
"  ..+++++++++++++++++.. ",
"   ..+++++++++++++++..  ",
"    ..+++++++++++++..   ",
"     ..+++++++++++..    ",
"      ....+++++....     ",
"        .........       "};
