/* XPM */
static char * 10_xpm[] = {
"24 24 41 1",
" 	c None",
".	c #000000",
"+	c #F6CE13",
"@	c #C5A50F",
"#	c #655407",
"$	c #0E0C01",
"%	c #D9B510",
"&	c #4F4206",
"*	c #0C0A00",
"=	c #DAB610",
"-	c #282103",
";	c #7A6609",
">	c #CCAB0F",
",	c #EAC412",
"'	c #211C02",
")	c #7F6A09",
"!	c #E5C011",
"~	c #231D02",
"{	c #ECC512",
"]	c #88720A",
"^	c #574906",
"/	c #8B750A",
"(	c #3E3404",
"_	c #B2950D",
":	c #3F3504",
"<	c #151101",
"[	c #DFBB11",
"}	c #DEBA11",
"|	c #171301",
"1	c #040400",
"2	c #F1C912",
"3	c #050400",
"4	c #88710A",
"5	c #8A740A",
"6	c #E9C312",
"7	c #1F1A02",
"8	c #806B09",
"9	c #EBC512",
"0	c #D7B410",
"a	c #4D4005",
"b	c #D8B410",
"                        ",
"        .........       ",
"      ....+++++....     ",
"     ..+++++++++++..    ",
"    ..+++++++++++++..   ",
"   ..+++++++++++++++..  ",
"  ..@#$.++++++%&**&=+.. ",
"  .+-;>.+++++,')!!)~{+. ",
" ..++++.+++++]^++++^/+..",
" ..++++.+++++(_++++_:+..",
" .+++++.+++++<[++++}|++.",
" .+++++.+++++12++++23++.",
" .+++++.+++++12++++23++.",
" .+++++.+++++<[++++}|++.",
" .+++++.+++++(_++++_:++.",
" ..++++.+++++4^++++^5+..",
" ..++++.+++++678!!)'9+..",
"  .+.......+++0a**ab++. ",
"  ..+++++++++++++++++.. ",
"   ..+++++++++++++++..  ",
"    ..+++++++++++++..   ",
"     ..+++++++++++..    ",
"      ....+++++....     ",
"        .........       "};
