/* XPM */
static char * 2_xpm[] = {
"24 24 42 1",
" 	c None",
".	c #000000",
"+	c #F6CE13",
"@	c #C0A10E",
"#	c #625207",
"$	c #201B02",
"%	c #040400",
"&	c #110E01",
"*	c #463A05",
"=	c #B99B0E",
"-	c #413605",
";	c #F1C912",
">	c #C9A80F",
",	c #322A03",
"'	c #010100",
")	c #A68B0C",
"!	c #736008",
"~	c #F5CD12",
"{	c #D0AE10",
"]	c #262002",
"^	c #EDC612",
"/	c #050400",
"(	c #A58A0C",
"_	c #E4BF11",
":	c #1D1902",
"<	c #9E840C",
"[	c #EFC812",
"}	c #3E3404",
"|	c #060500",
"1	c #AA8E0D",
"2	c #F3CB12",
"3	c #4E4106",
"4	c #A98E0D",
"5	c #F4CC12",
"6	c #584A06",
"7	c #020200",
"8	c #A4890C",
"9	c #645407",
"0	c #99800B",
"a	c #715F08",
"b	c #88710A",
"c	c #E6C111",
"                        ",
"        .........       ",
"      ....+++++....     ",
"     ..+++++++++++..    ",
"    ..+++++++++++++..   ",
"   ..+++++++++++++++..  ",
"  ..++++@#$%&*=++++++.. ",
"  .+++++.-@;>,')++++++. ",
" ..+++++!~+++{.]++++++..",
" ..++++++++++^./++++++..",
" .+++++++++++(.]+++++++.",
" .++++++++++_:.<+++++++.",
" .+++++++++[}|1++++++++.",
" .++++++++23%4+++++++++.",
" .+++++++5678++++++++++.",
" ..++++++9.0++++++++++..",
" ..+++++a.b+++++++++++..",
"  .+++++........c+++++. ",
"  ..+++++++++++++++++.. ",
"   ..+++++++++++++++..  ",
"    ..+++++++++++++..   ",
"     ..+++++++++++..    ",
"      ....+++++....     ",
"        .........       "};
