/* XPM */
static char * 3_xpm[] = {
"24 24 51 1",
" 	c None",
".	c #000000",
"+	c #F6CE13",
"@	c #BFA00E",
"#	c #5F4F07",
"$	c #1E1902",
"%	c #030300",
"&	c #0E0C01",
"*	c #3A3104",
"=	c #9D830C",
"-	c #372E04",
";	c #9A810B",
">	c #DBB810",
",	c #F2CA12",
"'	c #D1AF10",
")	c #473B05",
"!	c #796509",
"~	c #E0BC11",
"{	c #0F0C01",
"]	c #E3BE11",
"^	c #161201",
"/	c #F5CD12",
"(	c #D6B310",
"_	c #4F4206",
":	c #060500",
"<	c #A1860C",
"[	c #171301",
"}	c #B4970D",
"|	c #F3CB12",
"1	c #C6A60F",
"2	c #2F2703",
"3	c #040400",
"4	c #A88D0D",
"5	c #CAA90F",
"6	c #221D02",
"7	c #F1C912",
"8	c #050400",
"9	c #C2A30F",
"0	c #2D2503",
"a	c #4D4005",
"b	c #BB9C0E",
"c	c #ECC512",
"d	c #EEC712",
"e	c #B6980E",
"f	c #251F02",
"g	c #AF930D",
"h	c #B7990E",
"i	c #120F01",
"j	c #181401",
"k	c #504306",
"l	c #C0A10E",
"                        ",
"        .........       ",
"      ....+++++....     ",
"     ..+++++++++++..    ",
"    ..+++++++++++++..   ",
"   ..+++++++++++++++..  ",
"  ..++++@#$%&*=++++++.. ",
"  .+++++-;>,').!++++++. ",
" ..++++++++++~.{++++++..",
" ..++++++++++].^++++++..",
" .+++++++++/(_:<+++++++.",
" .++++++++...[}++++++++.",
" .+++++++++|1234+++++++.",
" .+++++++++++5.6+++++++.",
" .+++++++++++7.8+++++++.",
" ..++++++++++9.0++++++..",
" ..+++++abcdef%g++++++..",
"  .+++++h_i%jkl+++++++. ",
"  ..+++++++++++++++++.. ",
"   ..+++++++++++++++..  ",
"    ..+++++++++++++..   ",
"     ..+++++++++++..    ",
"      ....+++++....     ",
"        .........       "};
