/* XPM */
static char * 4_xpm[] = {
"24 24 21 1",
" 	c None",
".	c #000000",
"+	c #F6CE13",
"@	c #9C820C",
"#	c #DDB911",
"$	c #181401",
"%	c #4B3F05",
"&	c #846E0A",
"*	c #9D830C",
"=	c #362D04",
"-	c #F3CB12",
";	c #DEBA11",
">	c #1A1502",
",	c #D0AE10",
"'	c #4C3F05",
")	c #88710A",
"!	c #9E840C",
"~	c #393004",
"{	c #F4CC12",
"]	c #1B1602",
"^	c #D3B010",
"                        ",
"        .........       ",
"      ....+++++....     ",
"     ..+++++++++++..    ",
"    ..+++++++++++++..   ",
"   ..+++++++++++++++..  ",
"  ..++++++++@..++++++.. ",
"  .++++++++#$..+++++++. ",
" ..++++++++%&..+++++++..",
" ..+++++++*=-..+++++++..",
" .+++++++;>,+..++++++++.",
" .+++++++')++..++++++++.",
" .++++++!~{++..++++++++.",
" .++++++]^+++..++++++++.",
" .++++++.........++++++.",
" ..++++++++++..+++++++..",
" ..++++++++++..+++++++..",
"  .++++++++++..+++++++. ",
"  ..+++++++++++++++++.. ",
"   ..+++++++++++++++..  ",
"    ..+++++++++++++..   ",
"     ..+++++++++++..    ",
"      ....+++++....     ",
"        .........       "};
