/* XPM */
static char * 7_xpm[] = {
"24 24 30 1",
" 	c None",
".	c #000000",
"+	c #F6CE13",
"@	c #030300",
"#	c #957D0B",
"$	c #443905",
"%	c #403604",
"&	c #987F0B",
"*	c #DFBB11",
"=	c #020200",
"-	c #050400",
";	c #E6C111",
">	c #8D760A",
",	c #4A3E05",
"'	c #382F04",
")	c #9E840C",
"!	c #DAB610",
"~	c #080700",
"{	c #E9C312",
"]	c #86700A",
"^	c #504306",
"/	c #312903",
"(	c #A4890C",
"_	c #D3B010",
":	c #0A0800",
"<	c #ECC512",
"[	c #7E6909",
"}	c #554706",
"|	c #292203",
"1	c #A98E0D",
"                        ",
"        .........       ",
"      ....+++++....     ",
"     ..+++++++++++..    ",
"    ..+++++++++++++..   ",
"   ..+++++++++++++++..  ",
"  ..++++.......@+++++.. ",
"  .++++++++++#.$++++++. ",
" ..++++++++++%.&++++++..",
" ..+++++++++*=-;++++++..",
" .++++++++++>.,++++++++.",
" .++++++++++'.)++++++++.",
" .+++++++++!.~{++++++++.",
" .+++++++++].^+++++++++.",
" .+++++++++/.(+++++++++.",
" ..+++++++_.:<++++++++..",
" ..+++++++[.}+++++++++..",
"  .+++++++|.1+++++++++. ",
"  ..+++++++++++++++++.. ",
"   ..+++++++++++++++..  ",
"    ..+++++++++++++..   ",
"     ..+++++++++++..    ",
"      ....+++++....     ",
"        .........       "};
