/* XPM */
static char * 8_xpm[] = {
"24 24 49 1",
" 	c None",
".	c #000000",
"+	c #F6CE13",
"@	c #9C820C",
"#	c #3C3204",
"$	c #100D01",
"%	c #020200",
"&	c #756209",
"*	c #4A3E05",
"=	c #D3B010",
"-	c #F2CA12",
";	c #D2B010",
">	c #473B05",
",	c #766309",
"'	c #0D0B01",
")	c #E1BD11",
"!	c #E0BC11",
"~	c #0E0C01",
"{	c #191501",
"]	c #A68B0C",
"^	c #070600",
"/	c #D4B110",
"(	c #F3CB12",
"_	c #483C05",
":	c #BE9F0E",
"<	c #1C1802",
"[	c #B3960D",
"}	c #312903",
"|	c #C9A80F",
"1	c #F1C912",
"2	c #2F2703",
"3	c #080700",
"4	c #272103",
"5	c #CAA90F",
"6	c #282103",
"7	c #040400",
"8	c #050400",
"9	c #251F02",
"0	c #CBAA0F",
"a	c #C8A80F",
"b	c #262002",
"c	c #9E840C",
"d	c #342B04",
"e	c #A0860C",
"f	c #AF930D",
"g	c #423705",
"h	c #010100",
"i	c #433805",
"j	c #B1940D",
"                        ",
"        .........       ",
"      ....+++++....     ",
"     ..+++++++++++..    ",
"    ..+++++++++++++..   ",
"   ..+++++++++++++++..  ",
"  ..+++++@#$%$#@+++++.. ",
"  .+++++&.*=-;>.,+++++. ",
" ..+++++'.)+++!.~+++++..",
" ..+++++{.)+++!.{+++++..",
" .++++++]^*/(=_^]++++++.",
" .+++++++:<...<:+++++++.",
" .++++++[^}|1|23[++++++.",
" .++++++4.5+++|.6++++++.",
" .++++++7.-+++1.8++++++.",
" ..+++++9.0+++a.b+++++..",
" ..+++++c.d0-|2.e+++++..",
"  .++++++fg$h$ij++++++. ",
"  ..+++++++++++++++++.. ",
"   ..+++++++++++++++..  ",
"    ..+++++++++++++..   ",
"     ..+++++++++++..    ",
"      ....+++++....     ",
"        .........       "};
