/* XPM */
static char * smc_xpm[] = {
"24 24 305 2",
"  	c None",
". 	c #000000",
"+ 	c #000001",
"@ 	c #00151F",
"# 	c #002130",
"$ 	c #071A23",
"% 	c #131210",
"& 	c #090A09",
"* 	c #7E7971",
"= 	c #1778AD",
"- 	c #009AEB",
"; 	c #00A2F1",
"> 	c #4293B8",
", 	c #F6F0E1",
"' 	c #D5D5CB",
") 	c #7A7A74",
"! 	c #0D0D0D",
"~ 	c #090909",
"{ 	c #656663",
"] 	c #F8F8ED",
"^ 	c #FFFFFC",
"/ 	c #5497BE",
"( 	c #0099F7",
"_ 	c #00A6FC",
": 	c #2698CD",
"< 	c #FFFEEE",
"[ 	c #FFFFF3",
"} 	c #FFFFF9",
"| 	c #FDFDF1",
"1 	c #73746F",
"2 	c #0A0B0A",
"3 	c #222221",
"4 	c #BDBEB6",
"5 	c #FFFFFF",
"6 	c #FFFFF4",
"7 	c #FFFFF7",
"8 	c #4689B8",
"9 	c #008EF2",
"0 	c #019AF4",
"a 	c #0AA3F1",
"b 	c #BED0CF",
"c 	c #FEFEF2",
"d 	c #C9CAC0",
"e 	c #2B2B2A",
"f 	c #121211",
"g 	c #D9DAD0",
"h 	c #F5EFDD",
"i 	c #0068C5",
"j 	c #0186EC",
"k 	c #0192EF",
"l 	c #009DF6",
"m 	c #279AD1",
"n 	c #E9EAE0",
"o 	c #FFFFF6",
"p 	c #FFFFF5",
"q 	c #ECE8DC",
"r 	c #1A1614",
"s 	c #C5C5BC",
"t 	c #FCFAED",
"u 	c #4A7BAD",
"v 	c #0071E3",
"w 	c #027CE1",
"x 	c #0A8AE6",
"y 	c #0997EC",
"z 	c #00A3F9",
"A 	c #0591D3",
"B 	c #8FB5C2",
"C 	c #DBE8E5",
"D 	c #E4F1ED",
"E 	c #CCDEDD",
"F 	c #58A0BF",
"G 	c #02A0EC",
"H 	c #00090D",
"I 	c #44495C",
"J 	c #F4F3E3",
"K 	c #FFFEE9",
"L 	c #F2F0DD",
"M 	c #BCC4CC",
"N 	c #4E78B7",
"O 	c #005DD7",
"P 	c #1668BF",
"Q 	c #7FABCB",
"R 	c #AFC8D2",
"S 	c #B1CCD4",
"T 	c #84BCD3",
"U 	c #1B9BD8",
"V 	c #00A9FF",
"W 	c #0097E3",
"X 	c #0095DD",
"Y 	c #0099E9",
"Z 	c #00ADFF",
"` 	c #00B0FF",
" .	c #00679F",
"..	c #00031D",
"+.	c #0E1DA2",
"@.	c #1B2CAE",
"#.	c #1F37A5",
"$.	c #1C42B5",
"%.	c #1045C1",
"&.	c #014ACC",
"*.	c #1353AD",
"=.	c #E5E8E0",
"-.	c #FFFEF1",
";.	c #EDF1E7",
">.	c #2090C5",
",.	c #00AEFF",
"'.	c #00ACFE",
").	c #00ACFF",
"!.	c #009EEE",
"~.	c #5AA1BF",
"{.	c #BECBCA",
"].	c #232220",
"^.	c #10153D",
"/.	c #1E25A4",
"(.	c #0F1CAC",
"_.	c #0521B6",
":.	c #0630BD",
"<.	c #053DC4",
"[.	c #0041C0",
"}.	c #B9C2C8",
"|.	c #CDDBD8",
"1.	c #009BE9",
"2.	c #06A6F2",
"3.	c #98BEC9",
"4.	c #FCFCF1",
"5.	c #5F5F5B",
"6.	c #010101",
"7.	c #97978C",
"8.	c #F5F4E2",
"9.	c #ACB0C4",
"0.	c #3048AA",
"a.	c #0434BE",
"b.	c #0441C6",
"c.	c #114CB2",
"d.	c #EAEFEB",
"e.	c #ECF4ED",
"f.	c #1D9EDA",
"g.	c #58A4C4",
"h.	c #FFFFEF",
"i.	c #92928B",
"j.	c #060606",
"k.	c #A9A9A1",
"l.	c #E1E1D9",
"m.	c #1847B1",
"n.	c #0449CB",
"o.	c #0A4DB4",
"p.	c #E8EDEA",
"q.	c #EBF4ED",
"r.	c #179CDB",
"s.	c #00A3F7",
"t.	c #D3D1C6",
"u.	c #AAAAA1",
"v.	c #070706",
"w.	c #080808",
"x.	c #B0B0A7",
"y.	c #FFFFF8",
"z.	c #92A1B2",
"A.	c #0050D0",
"B.	c #0055CE",
"C.	c #99AFBF",
"D.	c #B0CBD1",
"E.	c #009FF2",
"F.	c #0091DD",
"G.	c #FAF1E1",
"H.	c #B0B0A8",
"I.	c #050504",
"J.	c #A1A19A",
"K.	c #EDE8D7",
"L.	c #0050C3",
"M.	c #026BDE",
"N.	c #076AC8",
"O.	c #A6BEC9",
"P.	c #FFFCEB",
"Q.	c #FFFDED",
"R.	c #B2CBCE",
"S.	c #0E99DC",
"T.	c #CFD0C6",
"U.	c #A1A29A",
"V.	c #80807A",
"W.	c #F4EEDC",
"X.	c #005BC5",
"Y.	c #0277E3",
"Z.	c #017FE7",
"`.	c #0786E1",
" +	c #3290C9",
".+	c #75AAC1",
"++	c #78AFC2",
"@+	c #379FCE",
"#+	c #08A6F1",
"$+	c #01ACFE",
"%+	c #4E9EC0",
"&+	c #FFFFF2",
"*+	c #82827C",
"=+	c #454542",
"-+	c #F5F5EA",
";+	c #A8B6BB",
">+	c #0075DE",
",+	c #0074CF",
"'+	c #0079CF",
")+	c #0081D2",
"!+	c #0088D8",
"~+	c #0090DC",
"{+	c #0094E0",
"]+	c #0096DF",
"^+	c #0096DE",
"/+	c #0098E1",
"(+	c #00A4F2",
"_+	c #04A9F8",
":+	c #94BDC9",
"<+	c #F9F9ED",
"[+	c #F8F7EB",
"}+	c #474744",
"|+	c #040404",
"1+	c #DADACF",
"2+	c #EEF0E7",
"3+	c #276A99",
"4+	c #00223F",
"5+	c #43474A",
"6+	c #161210",
"7+	c #060100",
"8+	c #4C4845",
"9+	c #56524F",
"0+	c #56514F",
"a+	c #4A4543",
"b+	c #050000",
"c+	c #1B1614",
"d+	c #45494B",
"e+	c #002A3F",
"f+	c #0082C2",
"g+	c #01A6F4",
"h+	c #55AED5",
"i+	c #8DB5C1",
"j+	c #0C0908",
"k+	c #4B4B48",
"l+	c #EDEEE4",
"m+	c #3680AB",
"n+	c #000914",
"o+	c #BAB9B8",
"p+	c #424242",
"q+	c #111111",
"r+	c #DBDBDB",
"s+	c #F8F8F8",
"t+	c #D4D4D4",
"u+	c #0E0E0E",
"v+	c #4F4F4F",
"w+	c #C3C2C1",
"x+	c #000E17",
"y+	c #0092D8",
"z+	c #00B1FF",
"A+	c #024769",
"B+	c #005D94",
"C+	c #00578A",
"D+	c #727373",
"E+	c #575757",
"F+	c #1E1E1E",
"G+	c #E8E8E8",
"H+	c #FEFEFE",
"I+	c #DFDFDF",
"J+	c #171717",
"K+	c #606060",
"L+	c #828281",
"M+	c #00527E",
"N+	c #0080BE",
"O+	c #000609",
"P+	c #000F1D",
"Q+	c #B6B5B5",
"R+	c #E6E6E6",
"S+	c #C6C6C6",
"T+	c #B3B3B3",
"U+	c #E0E0E0",
"V+	c #C5C5C4",
"W+	c #000D1A",
"X+	c #00060A",
"Y+	c #ACACAC",
"Z+	c #FDFDFD",
"`+	c #FCFCFC",
" @	c #FAFAFA",
".@	c #F9F9F9",
"+@	c #F7F7F7",
"@@	c #B7B7B7",
"#@	c #FBFBFB",
"$@	c #F6F6F6",
"%@	c #F0F0F0",
"&@	c #EAEAEA",
"*@	c #E5E5E5",
"=@	c #DCDCDC",
"-@	c #DADADA",
";@	c #DEDEDE",
">@	c #525252",
",@	c #636363",
"'@	c #C7C7C7",
")@	c #CECECE",
"!@	c #C8C8C8",
"~@	c #C1C1C1",
"{@	c #BBBBBB",
"]@	c #B5B5B5",
"^@	c #AFAFAF",
"/@	c #ABABAB",
"(@	c #9C9C9C",
"_@	c #535353",
":@	c #0C0C0C",
"<@	c #121212",
"[@	c #101010",
"}@	c #0F0F0F",
"|@	c #0A0A0A",
"                                                ",
"              .   + @ # $ % .   .               ",
"          . . & * = - ; > , ' ) ! . .           ",
"        . ~ { ] ^ / ( _ : < [ } | 1 2 .         ",
"      . 3 4 5 6 7 8 9 0 a b 6 c [ 5 d e .       ",
"    . f g 6 c 6 h i j k l m n o [ c p q r .     ",
"  . . s } [ [ t u v w x y z A B C D E F G H .   ",
"  . I J K L M N O P Q R S T U V W X Y Z `  ..   ",
"  ..+.@.#.$.%.&.*.=.-.[ [ -.;.>.,.'.).!.~.{.].  ",
"  ^./.(._.:.<.[.}.o c [ [ c 6 |.1.'.2.3.[ 4.5.  ",
"6.7.8.9.0.a.b.c.d.c [ [ [ [ c e.f.Z g.h.[ p i.6.",
"j.k.p [ l.m.n.o.p.c [ [ [ [ c q.r.s.t.o c 6 u.v.",
"w.x.6 c y.z.A.B.C.p [ c c [ 6 D.E.F.G.6 [ 6 H.w.",
"I.J.p [ p K.L.M.N.O.P.o o Q.R.S.,.s.T.o c p U.I.",
". V.6 [ 6 W.X.Y.Z.`. +.+++@+#+).$+Z %+&+[ 6 *+. ",
"  =+-+c o ;+>+,+'+)+!+~+{+]+^+^+/+(+_+:+<+[+}+  ",
"  |+1+p 2+3+4+5+6+7+8+9+0+a+b+c+d+e+f+g+h+i+j+  ",
"  . k+l+m+n+o+5 p+q+r+s+s+t+u+v+5 w+x+y+z+A+.   ",
"    . B+C+D+5 5 E+F+G+H+H+I+J+K+5 5 L+M+N+.     ",
"      O+P+Q+5 5 R+S+5 H+H+5 T+U+5 5 V+W+X+      ",
"        . Y+5 Z+H+5 Z+`+ @.@.@s++@.@@@.         ",
"          v+5 5 #@$@%@&@*@U+=@-@r+;@>@          ",
"          . ,@'@t+)@!@~@{@]@^@/@(@_@.           ",
"              :@<@q+q+[@[@}@}@u+|@              "};
