/* XPM */
static char * 5_xpm[] = {
"24 24 32 1",
" 	c None",
".	c #000000",
"+	c #F6CE13",
"@	c #110E01",
"#	c #050400",
"$	c #302803",
"%	c #AA8E0D",
"&	c #574906",
"*	c #D0AE10",
"=	c #F0C912",
"-	c #B4970D",
";	c #181401",
">	c #AF930D",
",	c #A98E0D",
"'	c #382F04",
")	c #EBC512",
"!	c #090800",
"~	c #EAC412",
"{	c #0A0800",
"]	c #A3880C",
"^	c #433805",
"/	c #493D05",
"(	c #B7990E",
"_	c #ECC512",
":	c #A48A0C",
"<	c #C5A50F",
"[	c #B6980E",
"}	c #4E4106",
"|	c #120F01",
"1	c #030300",
"2	c #1A1502",
"3	c #594B06",
"                        ",
"        .........       ",
"      ....+++++....     ",
"     ..+++++++++++..    ",
"    ..+++++++++++++..   ",
"   ..+++++++++++++++..  ",
"  ..+++++......++++++.. ",
"  .++++++..+++++++++++. ",
" ..++++++..+++++++++++..",
" ..++++++..+++++++++++..",
" .+++++++..@#$%++++++++.",
" .+++++++&*=-;.>+++++++.",
" .+++++++++++,.'+++++++.",
" .+++++++++++).!+++++++.",
" .+++++++++++~.{+++++++.",
" ..++++++++++].^++++++..",
" ..+++++/()_:@{<++++++..",
"  .+++++[}|123*+++++++. ",
"  ..+++++++++++++++++.. ",
"   ..+++++++++++++++..  ",
"    ..+++++++++++++..   ",
"     ..+++++++++++..    ",
"      ....+++++....     ",
"        .........       "};
