/* XPM */
static char * 6_xpm[] = {
"24 24 56 1",
" 	c None",
".	c #000000",
"+	c #F6CE13",
"@	c #BC9D0E",
"#	c #4A3E05",
"$	c #120F01",
"%	c #060500",
"&	c #382F04",
"*	c #AB8F0D",
"=	c #957D0B",
"-	c #010100",
";	c #605007",
">	c #D4B110",
",	c #F0C912",
"'	c #C5A50F",
")	c #504306",
"!	c #CDAC0F",
"~	c #040400",
"{	c #493D05",
"]	c #625207",
"^	c #B1940D",
"/	c #221D02",
"(	c #A58A0C",
"_	c #3B3204",
":	c #080700",
"<	c #0B0900",
"[	c #403604",
"}	c #BD9E0E",
"|	c #070600",
"1	c #BFA00E",
"2	c #BF9F0E",
"3	c #1E1902",
"4	c #050400",
"5	c #AF930D",
"6	c #AE920D",
"7	c #3D3304",
"8	c #191501",
"9	c #EDC612",
"0	c #ECC512",
"a	c #090800",
"b	c #483C05",
"c	c #0A0800",
"d	c #9F850C",
"e	c #B0930D",
"f	c #433805",
"g	c #F4CC12",
"h	c #413605",
"i	c #201B02",
"j	c #C0A10E",
"k	c #F1C912",
"l	c #1F1A02",
"m	c #C6A60F",
"n	c #786409",
"o	c #211C02",
"p	c #110E01",
"q	c #CCAB0F",
"                        ",
"        .........       ",
"      ....+++++....     ",
"     ..+++++++++++..    ",
"    ..+++++++++++++..   ",
"   ..+++++++++++++++..  ",
"  ..++++++@#$%&*+++++.. ",
"  .++++++=-;>,')++++++. ",
" ..+++++!~{+++++++++++..",
" ..+++++].^+++++++++++..",
" .++++++/.(_:<[}+++++++.",
" .++++++|./1,23~@++++++.",
" .++++++4.5+++6.7++++++.",
" .++++++8.9+++0.a++++++.",
" .++++++b.9+++0.c++++++.",
" ..+++++d.e+++5.f+++++..",
" ..+++++ghijkjlcm+++++..",
"  .++++++9no~p)q++++++. ",
"  ..+++++++++++++++++.. ",
"   ..+++++++++++++++..  ",
"    ..+++++++++++++..   ",
"     ..+++++++++++..    ",
"      ....+++++....     ",
"        .........       "};
