/* XPM */
static char * 9_xpm[] = {
"24 24 52 1",
" 	c None",
".	c #000000",
"+	c #F6CE13",
"@	c #CCAB0F",
"#	c #504306",
"$	c #131001",
"%	c #050400",
"&	c #231D02",
"*	c #7B6709",
"=	c #EFC812",
"-	c #C6A60F",
";	c #0A0800",
">	c #1E1902",
",	c #BFA00E",
"'	c #F0C912",
")	c #BF9F0E",
"!	c #483C05",
"~	c #F5CD12",
"{	c #433805",
"]	c #AF930D",
"^	c #AE920D",
"/	c #A4890C",
"(	c #EDC612",
"_	c #ECC512",
":	c #4A3E05",
"<	c #080700",
"[	c #1B1602",
"}	c #3A3104",
"|	c #B0930D",
"1	c #060500",
"2	c #B6980E",
"3	c #020200",
"4	c #201B02",
"5	c #C0A10E",
"6	c #F1C912",
"7	c #070600",
"8	c #B99B0E",
"9	c #3E3404",
"0	c #382F04",
"a	c #A3880C",
"b	c #221D02",
"c	c #B1940D",
"d	c #625207",
"e	c #4B3F05",
"f	c #040400",
"g	c #514306",
"h	c #C7A70F",
"i	c #D5B210",
"j	c #927A0B",
"k	c #AB8F0D",
"l	c #110E01",
"m	c #BA9B0E",
"                        ",
"        .........       ",
"      ....+++++....     ",
"     ..+++++++++++..    ",
"    ..+++++++++++++..   ",
"   ..+++++++++++++++..  ",
"  ..+++++@#$%&*=+++++.. ",
"  .+++++-;>,')>!~+++++. ",
" ..+++++{.]+++^./+++++..",
" ..+++++;.(+++_.:+++++..",
" .++++++<.(+++_.[++++++.",
" .++++++}.|+++].1++++++.",
" .++++++234565&.7++++++.",
" .+++++++89;<0a.b++++++.",
" .++++++++++++c.d++++++.",
" ..+++++++++++ef@+++++..",
" ..++++++gh6id.j++++++..",
"  .++++++k01l!m+++++++. ",
"  ..+++++++++++++++++.. ",
"   ..+++++++++++++++..  ",
"    ..+++++++++++++..   ",
"     ..+++++++++++..    ",
"      ....+++++....     ",
"        .........       "};
